<?xml version="1.0" encoding="utf-8"?>
<!-- Generator: Adobe Illustrator 24.2.3, SVG Export Plug-In . SVG Version: 6.00 Build 0)  -->
<svg version="1.1" id="Vrstva_1" xmlns="http://www.w3.org/2000/svg" xmlns:xlink="http://www.w3.org/1999/xlink" x="0px" y="0px"
	 width="500px" height="500px" viewBox="0 0 500 500" style="enable-background:new 0 0 500 500;" xml:space="preserve">
<style type="text/css">
	.st0{fill:#95C11F;}
</style>
<g>
	<g>
		<path class="st0" d="M358.3,97.1c3,13.1,13,24,13,24c4,4.3,8.6,3.2,10.3-2.4c0,0,4.2-14.1,1.2-27.3c-3-13.1-13-24-13-24
			c-4-4.3-8.6-3.2-10.3,2.4C359.5,69.8,355.3,84,358.3,97.1z"/>
		<path class="st0" d="M386.3,56.5c0,10.1,5.4,19.7,5.4,19.7c2.2,3.8,5.8,3.8,7.9,0c0,0,5.5-9.6,5.6-19.7c0-10.1-5.4-19.7-5.4-19.7
			c-2.2-3.8-5.8-3.8-7.9,0C391.8,36.8,386.3,46.4,386.3,56.5z"/>
		<path class="st0" d="M349.2,157.4c5.2,12.4,16.9,21.4,16.9,21.4c4.7,3.6,9.1,1.7,9.8-4.1c0,0,1.8-14.6-3.4-27.1
			c-5.2-12.4-16.9-21.4-16.9-21.4c-4.7-3.6-9-1.7-9.8,4.1C345.8,130.3,344,144.9,349.2,157.4z"/>
		<path class="st0" d="M342,218.6c6.7,13.8,20.4,23.2,20.4,23.2c5.5,3.8,10.4,1.4,10.8-5.2c0,0,1.1-16.7-5.5-30.5
			c-6.7-13.8-20.5-23.2-20.5-23.2c-5.5-3.8-10.3-1.4-10.8,5.2C336.5,188.2,335.4,204.8,342,218.6z"/>
		<path class="st0" d="M195.4,91c6.7,13.8,20.5,23.2,20.5,23.2c5.5,3.8,10.4,1.4,10.8-5.2c0,0,1.1-16.7-5.5-30.5
			c-6.7-13.8-20.5-23.2-20.5-23.2c-5.5-3.8-10.4-1.4-10.8,5.2C189.9,60.5,188.7,77.2,195.4,91z"/>
		<path class="st0" d="M76.4,137.6c-0.6,15.3,7.1,30.1,7.1,30.1c3.1,5.9,8.5,6.1,12,0.5c0,0,8.9-14.2,9.5-29.5
			c0.6-15.3-7.1-30.1-7.1-30.1c-3.1-5.9-8.5-6.1-12-0.5C86,108.1,77.1,122.3,76.4,137.6z"/>
		<path class="st0" d="M292.9,166.8c15.3,0.4,30-7.4,30-7.4c5.9-3.2,6-8.6,0.3-12c0,0-14.3-8.7-29.6-9.1c-15.3-0.4-30,7.5-30,7.5
			c-5.9,3.1-6,8.5-0.3,12C263.3,157.7,277.6,166.4,292.9,166.8z"/>
		<path class="st0" d="M72.1,316.7c14.6,4.6,30.9,1,30.9,1c6.5-1.4,8.1-6.6,3.6-11.5c0,0-11.4-12.3-26-16.9c-14.6-4.6-30.9-1-30.9-1
			c-6.5,1.4-8.1,6.6-3.6,11.5C46.1,299.9,57.5,312.1,72.1,316.7z"/>
		<path class="st0" d="M132.6,330.7c-0.5,15.3,7.3,30.1,7.3,30.1c3.1,5.9,8.5,6.1,12,0.4c0,0,8.8-14.2,9.3-29.5
			c0.5-15.3-7.3-30.1-7.3-30.1c-3.1-5.9-8.5-6.1-12-0.4C141.9,301.2,133.1,315.4,132.6,330.7z"/>
		<path class="st0" d="M265.4,415.8c14.6,4.6,30.9,1.1,30.9,1.1c6.5-1.4,8.2-6.6,3.7-11.5c0,0-11.3-12.3-25.9-17
			c-14.6-4.6-30.9-1.1-30.9-1.1c-6.5,1.4-8.1,6.5-3.6,11.5C239.5,398.8,250.9,411.1,265.4,415.8z"/>
		<path class="st0" d="M216.3,435.9c-14.8,3.8-26.8,15.4-26.8,15.4c-4.8,4.6-3.5,9.9,3,11.7c0,0,16.1,4.4,31,0.7
			c14.8-3.8,26.8-15.4,26.8-15.4c4.8-4.6,3.4-9.9-3-11.6C247.3,436.5,231.2,432.1,216.3,435.9z"/>
		<path class="st0" d="M342.2,286.9c7.1,13.6,21.2,22.6,21.2,22.6c5.6,3.6,10.4,1.1,10.7-5.6c0,0,0.6-16.7-6.5-30.3
			c-7.1-13.6-21.2-22.6-21.2-22.6c-5.6-3.6-10.4-1.1-10.6,5.6C335.7,256.6,335.1,273.4,342.2,286.9z"/>
		<path class="st0" d="M342,360.3c9.4,14.9,26.4,23.8,26.4,23.8c6.8,3.6,12,0.3,11.7-7.4c0,0-0.9-19.2-10.3-34.1
			c-9.4-14.9-26.5-23.8-26.5-23.8c-6.8-3.6-12-0.2-11.7,7.4C331.7,326.2,332.6,345.4,342,360.3z"/>
		<path class="st0" d="M341,428.5c9.4,14.9,26.4,23.9,26.4,23.9c6.8,3.6,12,0.2,11.7-7.4c0,0-0.9-19.2-10.3-34.1
			c-9.4-14.8-26.5-23.8-26.5-23.8c-6.8-3.6-12-0.2-11.7,7.4C330.7,394.4,331.6,413.7,341,428.5z"/>
		<path class="st0" d="M442.2,157.4c-5.2,12.4-16.9,21.4-16.9,21.4c-4.7,3.6-9.1,1.7-9.8-4.1c0,0-1.8-14.6,3.4-27.1
			c5.2-12.4,16.9-21.4,16.9-21.4c4.7-3.6,9.1-1.7,9.8,4.1C445.6,130.3,447.4,144.9,442.2,157.4z"/>
		<path class="st0" d="M439.1,102.3c-5.6,7.7-15.2,12-15.2,12c-3.8,1.7-6.5-0.3-6.1-4.4c0,0,1.2-10.4,6.8-18.1
			c5.6-7.7,15.2-12,15.2-12c3.8-1.7,6.5,0.3,6.1,4.4C445.8,84.2,444.7,94.6,439.1,102.3z"/>
		<path class="st0" d="M443.4,218.6c-6.7,13.8-20.4,23.2-20.4,23.2c-5.5,3.8-10.4,1.4-10.8-5.2c0,0-1.1-16.7,5.5-30.5
			c6.7-13.8,20.5-23.2,20.5-23.2c5.5-3.8,10.3-1.4,10.8,5.2C448.9,188.2,450.1,204.8,443.4,218.6z"/>
		<path class="st0" d="M439.6,286.9c-7.1,13.6-21.2,22.6-21.2,22.6c-5.6,3.6-10.4,1.1-10.7-5.6c0,0-0.6-16.7,6.5-30.3
			c7.1-13.6,21.2-22.6,21.2-22.6c5.6-3.6,10.4-1.1,10.6,5.6C446.1,256.6,446.7,273.4,439.6,286.9z"/>
		<path class="st0" d="M447.1,360.3c-9.4,14.9-26.4,23.8-26.4,23.8c-6.8,3.6-12,0.3-11.7-7.4c0,0,0.9-19.2,10.3-34.1
			c9.4-14.9,26.5-23.8,26.5-23.8c6.8-3.6,12-0.2,11.7,7.4C457.4,326.2,456.5,345.4,447.1,360.3z"/>
		<path class="st0" d="M454.2,428.5c-9.4,14.9-26.5,23.9-26.5,23.9c-6.8,3.6-12,0.2-11.7-7.4c0,0,0.9-19.2,10.3-34.1
			c9.4-14.8,26.4-23.8,26.4-23.8c6.8-3.6,12-0.2,11.7,7.4C464.5,394.4,463.6,413.7,454.2,428.5z"/>
		<path class="st0" d="M405.5,452.5c0,0-29.5-244.1,8.1-367.7c-19-1.9-47.8,110.3-19.1,353.8C400.2,475,406.8,458.2,405.5,452.5z"/>
		<g>
			<path class="st0" d="M307.7,97c0,16.6-13.4,30-30,30c-16.6,0-30-13.4-30-30c0-16.6,13.4-30,30-30C294.2,67,307.7,80.4,307.7,97z"
				/>
			<path class="st0" d="M182.9,178.2c0,16.6-13.4,30-30,30c-16.6,0-30-13.4-30-30s13.4-30,30-30
				C169.4,148.2,182.9,161.7,182.9,178.2z"/>
			<circle class="st0" cx="90.7" cy="372.1" r="30"/>
			<path class="st0" d="M319.2,347.9c0,16.6-13.4,30-30,30c-16.6,0-30-13.4-30-30c0-16.6,13.4-30,30-30
				C305.8,317.8,319.2,331.3,319.2,347.9z"/>
		</g>
		<g>
			<path class="st0" d="M135,297c0,3.4-5.5,6.1-12.2,6.1c-6.7,0-12.2-2.7-12.2-6.1c0-3.4,5.5-6.1,12.2-6.1
				C129.5,290.9,135,293.6,135,297z"/>
			<path class="st0" d="M118.1,211.1c-2.7,2.1-8.2-0.6-12.3-5.9c-4.1-5.3-5.3-11.3-2.7-13.4c2.7-2.1,8.2,0.6,12.3,5.9
				C119.6,203.1,120.8,209,118.1,211.1z"/>
			<path class="st0" d="M319.5,408.1c-2.7,2.1-8.2-0.6-12.3-5.9c-4.1-5.3-5.3-11.3-2.7-13.4c2.7-2.1,8.2,0.6,12.3,5.9
				C320.9,400.1,322.1,406.1,319.5,408.1z"/>
			<path class="st0" d="M339.2,239.4c-2.7,2.1-8.2-0.6-12.3-5.9c-4.1-5.3-5.3-11.3-2.7-13.4c2.7-2.1,8.2,0.6,12.3,5.9
				C340.6,231.3,341.8,237.3,339.2,239.4z"/>
			<path class="st0" d="M258.7,429.2c-1.4,3-7.5,3.2-13.6,0.4c-6.1-2.8-9.9-7.6-8.5-10.7c1.4-3.1,7.5-3.2,13.6-0.4
				C256.3,421.3,260.1,426.1,258.7,429.2z"/>
			<path class="st0" d="M127.9,339.2c-1.4,3.1-7.5,3.2-13.6,0.4c-6.1-2.8-9.9-7.6-8.5-10.7c1.4-3.1,7.5-3.2,13.6-0.4
				C125.6,331.4,129.4,336.2,127.9,339.2z"/>
			<path class="st0" d="M292.8,436.4c1.5,3-2.1,7.9-8.2,10.9c-6,3-12.1,3-13.6,0c-1.5-3,2.1-7.9,8.2-10.9
				C285.2,433.4,291.3,433.4,292.8,436.4z"/>
		</g>
		<g>
			<path class="st0" d="M247.6,63.8c0,6.7-5.5,12.2-12.2,12.2c-6.7,0-12.2-5.5-12.2-12.2c0-6.7,5.5-12.2,12.2-12.2
				C242.2,51.6,247.6,57.1,247.6,63.8z"/>
			<path class="st0" d="M195,127c0,6.7-5.5,12.2-12.2,12.2c-6.7,0-12.2-5.5-12.2-12.2c0-6.7,5.5-12.2,12.2-12.2
				C189.6,114.9,195,120.3,195,127z"/>
			<path class="st0" d="M72.9,160.4c0,6.7-5.5,12.2-12.2,12.2c-6.7,0-12.2-5.5-12.2-12.2s5.5-12.2,12.2-12.2
				C67.4,148.2,72.9,153.7,72.9,160.4z"/>
			<path class="st0" d="M60.7,331.2c0,6.7-5.5,12.2-12.2,12.2s-12.2-5.5-12.2-12.2c0-6.7,5.5-12.2,12.2-12.2S60.7,324.5,60.7,331.2z
				"/>
			<path class="st0" d="M135,138.2c0,6.7-5.5,12.2-12.2,12.2c-6.7,0-12.2-5.5-12.2-12.2c0-6.7,5.5-12.2,12.2-12.2
				C129.5,126,135,131.4,135,138.2z"/>
			<path class="st0" d="M254.2,365.3c0,6.7-5.5,12.2-12.2,12.2c-6.7,0-12.2-5.5-12.2-12.2c0-6.7,5.5-12.2,12.2-12.2
				C248.7,353.1,254.2,358.6,254.2,365.3z"/>
			<path class="st0" d="M182.9,369.9c0,6.7-5.5,12.2-12.2,12.2s-12.2-5.5-12.2-12.2c0-6.7,5.5-12.2,12.2-12.2
				S182.9,363.1,182.9,369.9z"/>
			<path class="st0" d="M331.4,303c0,6.7-5.5,12.2-12.2,12.2c-6.7,0-12.2-5.5-12.2-12.2c0-6.7,5.5-12.2,12.2-12.2
				C326,290.9,331.4,296.3,331.4,303z"/>
			<path class="st0" d="M326.9,190.4c0,6.7-5.5,12.2-12.2,12.2s-12.2-5.5-12.2-12.2c0-6.7,5.5-12.2,12.2-12.2
				S326.9,183.7,326.9,190.4z"/>
			<path class="st0" d="M336.4,116c0,6.7-5.5,12.2-12.2,12.2c-6.7,0-12.2-5.5-12.2-12.2c0-6.7,5.5-12.2,12.2-12.2
				C330.9,103.8,336.4,109.3,336.4,116z"/>
		</g>
		<g>
			<path class="st0" d="M241.4,140.3c2.8,7.8-4.4,17.6-16.3,22c-11.9,4.4-23.8,1.6-26.7-6.2c-2.9-7.8,4.5-17.6,16.3-22
				C226.6,129.8,238.5,132.5,241.4,140.3z"/>
			<path class="st0" d="M82.6,241.5c2.9,7.8-4.4,17.6-16.3,22c-11.9,4.4-23.8,1.6-26.7-6.2c-2.9-7.8,4.4-17.6,16.3-22
				C67.8,231,79.8,233.8,82.6,241.5z"/>
			<path class="st0" d="M90.5,206.9c-2,8.1-13.5,12.2-25.8,9.2c-12.3-3-20.6-12-18.7-20c2-8.1,13.5-12.1,25.8-9.2
				C84,189.9,92.4,198.8,90.5,206.9z"/>
			<path class="st0" d="M227.6,347.5c-2,8.1-13.5,12.2-25.8,9.2c-12.3-3-20.6-11.9-18.7-20c2-8,13.5-12.2,25.8-9.2
				C221.2,330.5,229.6,339.5,227.6,347.5z"/>
			<path class="st0" d="M213.2,420c-7.8,2.8-17.6-4.5-21.9-16.4c-4.3-11.9-1.5-23.8,6.3-26.6c7.8-2.8,17.6,4.5,22,16.4
				C223.8,405.2,221,417.2,213.2,420z"/>
		</g>
		<g>
			<path class="st0" d="M146.9,64.2c-16.6,0-30,13.4-30,30c0,16.6,13.4,30,30,30c16.6,0,30-13.4,30-30
				C176.9,77.7,163.5,64.2,146.9,64.2z M146.9,104.9c-5.9,0-10.6-4.8-10.6-10.6c0-5.9,4.8-10.6,10.6-10.6c5.9,0,10.6,4.8,10.6,10.6
				C157.5,100.1,152.8,104.9,146.9,104.9z"/>
			<path class="st0" d="M135.1,219.4c-16.6,0-30,13.4-30,30c0,16.6,13.4,30,30,30c16.6,0,30-13.4,30-30
				C165.1,232.8,151.7,219.4,135.1,219.4z M135.1,260.1c-5.9,0-10.6-4.8-10.6-10.6c0-5.9,4.8-10.6,10.6-10.6
				c5.9,0,10.6,4.8,10.6,10.6C145.7,255.3,141,260.1,135.1,260.1z"/>
			<path class="st0" d="M152.8,389.7c-16.6,0-30,13.4-30,30c0,16.6,13.4,30,30,30c16.6,0,30-13.4,30-30
				C182.9,403.1,169.4,389.7,152.8,389.7z M152.8,430.3c-5.9,0-10.6-4.8-10.6-10.6c0-5.9,4.8-10.6,10.6-10.6
				c5.9,0,10.6,4.8,10.6,10.6C163.5,425.6,158.7,430.3,152.8,430.3z"/>
		</g>
	</g>
</g>
</svg>
