<?xml version="1.0" encoding="UTF-8" standalone="no"?>
<!-- Created with Inkscape (http://www.inkscape.org/) -->

<svg
   width="64"
   height="64"
   viewBox="0 0 16.933333 16.933333"
   version="1.1"
   id="svg5"
   inkscape:version="1.2.2 (732a01da63, 2022-12-09)"
   sodipodi:docname="save_icon.svg"
   inkscape:export-filename="cross_icon.png"
   inkscape:export-xdpi="48"
   inkscape:export-ydpi="48"
   xmlns:inkscape="http://www.inkscape.org/namespaces/inkscape"
   xmlns:sodipodi="http://sodipodi.sourceforge.net/DTD/sodipodi-0.dtd"
   xmlns="http://www.w3.org/2000/svg"
   xmlns:svg="http://www.w3.org/2000/svg">
  <sodipodi:namedview
     id="namedview7"
     pagecolor="#ffffff"
     bordercolor="#000000"
     borderopacity="0.25"
     inkscape:showpageshadow="2"
     inkscape:pageopacity="0.0"
     inkscape:pagecheckerboard="0"
     inkscape:deskcolor="#d1d1d1"
     inkscape:document-units="mm"
     showgrid="false"
     inkscape:zoom="8.1033961"
     inkscape:cx="18.449055"
     inkscape:cy="8.3298409"
     inkscape:window-width="1920"
     inkscape:window-height="991"
     inkscape:window-x="-9"
     inkscape:window-y="-9"
     inkscape:window-maximized="1"
     inkscape:current-layer="layer1"
     showguides="true">
    <sodipodi:guide
       position="3.5916011,15.774225"
       orientation="0,-1"
       id="guide6236"
       inkscape:locked="false" />
    <sodipodi:guide
       position="3.1168376,13.377829"
       orientation="1,0"
       id="guide6240"
       inkscape:locked="false" />
  </sodipodi:namedview>
  <defs
     id="defs2" />
  <g
     inkscape:label="Layer 1"
     inkscape:groupmode="layer"
     id="layer1">
    <rect
       style="fill:#ffffff;stroke:none;stroke-width:0.100386;stroke-linecap:round;stroke-linejoin:round;stroke-dasharray:none;paint-order:markers stroke fill"
       id="rect6985"
       width="7.3761296"
       height="3.924521"
       x="2.9900486"
       y="1.0045072"
       ry="0.53763914" />
    <g
       id="g6973">
      <path
         id="rect2723"
         style="fill:#000080;stroke:#000080;stroke-width:0.265;stroke-linecap:round;stroke-linejoin:round;stroke-dasharray:none"
         d="M 2.9750122,1.298112 H 1.7445964 c -0.2473393,0 -0.4464844,0.1991451 -0.4464844,0.4464844 V 15.188737 c 0,0.247339 0.1991451,0.446484 0.4464844,0.446484 H 15.188737 c 0.247339,0 0.446484,-0.199145 0.446484,-0.446484 V 4.7630168 L 11.966195,1.298112 h -1.586984 v 3.2153076 c 0,0.015433 -0.0011,0.030455 -0.0026,0.045475 -0.0015,0.01502 -0.0038,0.029908 -0.0067,0.044442 -0.003,0.014533 -0.0065,0.028918 -0.01085,0.042891 -0.0043,0.013974 -0.0094,0.027484 -0.01499,0.040824 -0.0056,0.01334 -0.01176,0.026124 -0.0186,0.038757 -0.0068,0.012633 -0.01423,0.024838 -0.02222,0.03669 -0.008,0.011852 -0.01677,0.023625 -0.02584,0.034623 -0.0091,0.010998 -0.01887,0.021452 -0.02894,0.031523 -0.01007,0.01007 -0.02052,0.01987 -0.03152,0.028939 -0.011,0.00907 -0.02225,0.017327 -0.03411,0.025321 -0.01185,0.00799 -0.02406,0.015375 -0.03669,0.022221 -0.01263,0.00685 -0.02593,0.013497 -0.03927,0.01912 -0.01334,0.00562 -0.02685,0.010141 -0.04082,0.014469 -0.01397,0.00433 -0.02836,0.00841 -0.04289,0.011369 -0.01453,0.00296 -0.029422,0.0052 -0.044442,0.00672 -0.01502,0.00152 -0.030043,0.00207 -0.045475,0.00207 H 3.42099 c -0.015433,0 -0.030455,-5.508e-4 -0.045475,-0.00207 -0.01502,-0.00152 -0.029908,-0.00376 -0.044442,-0.00672 C 3.31654,4.9471236 3.302155,4.9430436 3.288182,4.9387146 3.274208,4.9343846 3.260698,4.9298646 3.247358,4.9242456 3.234018,4.9186256 3.220717,4.9119706 3.208084,4.9051256 3.195451,4.8982756 3.183246,4.8908986 3.171394,4.8829046 3.159542,4.8749146 3.148286,4.8666526 3.137288,4.8575836 3.12629,4.8485136 3.115836,4.8387156 3.105765,4.8286446 3.095695,4.8185746 3.085895,4.8081196 3.076826,4.7971216 3.067756,4.7861236 3.058982,4.7743506 3.050988,4.7624986 3.042998,4.7506466 3.035613,4.7384416 3.028767,4.7258086 3.021917,4.7131756 3.015787,4.7003916 3.010163,4.6870516 3.004543,4.6737116 2.999505,4.6602006 2.995177,4.6462276 2.990847,4.6322546 2.987287,4.6178696 2.984325,4.6033366 c -0.00296,-0.014533 -0.0052,-0.029422 -0.00672,-0.044442 -0.00152,-0.01502 -0.00258,-0.030043 -0.00258,-0.045475 z" />
      <rect
         style="fill:#000080;stroke:#000080;stroke-width:0.0988776;stroke-linecap:round;stroke-linejoin:round;stroke-dasharray:none;paint-order:markers stroke fill"
         id="rect6238"
         width="1.1683928"
         height="3.0376577"
         x="8.4070511"
         y="1.2320111"
         ry="0.43534258" />
      <rect
         style="fill:#ffffff;stroke:#000080;stroke-width:0.096706;stroke-linecap:round;stroke-linejoin:round;stroke-dasharray:none;paint-order:markers stroke fill"
         id="rect6242"
         width="9.3796139"
         height="5.4414639"
         x="3.1151905"
         y="8.7129354"
         ry="0.48633355" />
    </g>
  </g>
</svg>
